#!OML:ASF X:\für Bonn\!DataBase\2005_08_10_Bjorn_Final\c3d\bjorn.ASF
:FULLY-SPECIFIED
:DEGREES
308
root 15.3175 19.1288 0.698343 171.442 -97.9867 -160.404
lowerback 32.8666 2.43978 6.04469
upperback 20.9301 1.9965 -0.728231
thorax 6.45143 0.807373 -4.52326
lowerneck -3.17423 -5.19707 11.4867
upperneck -5.99665 -7.3609 -1.9426
head -1.92051 -3.95257 -2.54051
rclavicle 3.18055e-014 -1.82882e-014
rhumerus 5.23364 13.6641 -66.4355
rradius 27.844
rwrist -2.85014
rhand -10.4581 10.7853
rfingers 7.12502
rthumb 15.5424 -18.6101
lclavicle 3.18055e-014 -1.82882e-014
lhumerus -14.4047 -21.3669 81.4424
lradius 39.3119
lwrist -2.22656
lhand -31.9455 -13.8956
lfingers 7.12502
lthumb -5.19612 16.0207
rfemur -31.7498 -5.0117 13.0935
rtibia 37.8312
rfoot -12.9047 6.73329
rtoes -2.47231
lfemur -28.487 0.951102 -17.1274
ltibia 35.015
lfoot -10.6215 11.8894
ltoes -20.249
309
root 15.2636 19.1357 0.685753 171.261 -97.8114 -160.893
lowerback 32.1221 2.45376 5.97218
upperback 20.8292 2.00693 -0.780232
thorax 6.60817 0.821496 -4.53909
lowerneck -3.37499 -5.16184 11.368
upperneck -5.36118 -7.33063 -1.94412
head -1.66671 -3.90816 -2.53474
rclavicle 9.54166e-015 -2.90226e-014
rhumerus 4.1778 13.5248 -67.0348
rradius 27.9803
rwrist -2.81056
rhand -10.1753 10.6683
rfingers 7.12502
rthumb 15.8148 -18.7057
lclavicle 9.54166e-015 -2.90226e-014
lhumerus -14.5607 -21.27 81.3063
lradius 39.0316
lwrist -2.45403
lhand -31.9041 -13.9117
lfingers 7.12502
lthumb -5.15609 16.0056
rfemur -30.7042 -4.99454 13.2492
rtibia 37.5613
rfoot -12.9811 7.01745
rtoes -2.09927
lfemur -27.346 0.899332 -16.909
ltibia 34.6875
lfoot -10.7711 12.0797
ltoes -20.4483
310
root 15.2082 19.1414 0.672266 171.124 -97.6344 -161.383
lowerback 31.3209 2.47264 5.87084
upperback 20.73 2.01641 -0.811794
thorax 6.79199 0.831933 -4.51677
lowerneck -3.5473 -5.12066 11.212
upperneck -4.76879 -7.28903 -1.96596
head -1.43255 -3.85969 -2.52829
rclavicle 3.10104e-014 -9.58142e-014
rhumerus 3.16299 13.5345 -67.5376
rradius 28.2053
rwrist -2.98023
rhand -9.88234 10.514
rfingers 7.12502
rthumb 16.0969 -18.8374
lclavicle 3.10104e-014 -9.58142e-014
lhumerus -14.7431 -21.192 81.213
lradius 38.7856
lwrist -2.53238
lhand -31.8487 -13.8985
lfingers 7.12502
lthumb -5.10266 16.0201
rfemur -29.7157 -5.02676 13.42
rtibia 37.3122
rfoot -13.0537 7.30357
rtoes -1.96001
lfemur -26.2554 0.833739 -16.6892
ltibia 34.3785
lfoot -10.939 12.2618
ltoes -20.4537
311
root 15.1518 19.1471 0.658779 170.845 -97.4335 -161.734
lowerback 30.5444 2.49518 5.78535
upperback 20.6146 2.03909 -0.883279
thorax 6.95836 0.853891 -4.54744
lowerneck -3.72731 -5.07994 11.1549
upperneck -4.11709 -7.25254 -2.0469
head -1.18703 -3.81342 -2.56105
rclavicle -2.3059e-014 -1.78906e-014
rhumerus 2.14251 13.5329 -68.0692
rradius 28.4572
rwrist -3.12875
rhand -9.59321 10.3135
rfingers 7.12502
rthumb 16.3753 -19.0153
lclavicle -2.3059e-014 -1.78906e-014
lhumerus -14.9358 -21.1762 81.0848
lradius 38.5379
lwrist -2.72361
lhand -31.8755 -13.8047
lfingers 7.12502
lthumb -5.12853 16.1132
rfemur -28.7325 -5.00131 13.5566
rtibia 37.0789
rfoot -13.1399 7.59875
rtoes -1.67986
lfemur -25.1578 0.804819 -16.4934
ltibia 34.0811
lfoot -11.0965 12.4476
ltoes -20.5115
312
root 15.0946 19.1509 0.645975 170.559 -97.2241 -162.06
lowerback 29.7561 2.52619 5.69521
upperback 20.5012 2.07172 -0.942637
thorax 7.13875 0.879922 -4.56383
lowerneck -3.87738 -5.05427 11.0565
upperneck -3.51441 -7.23092 -2.11927
head -0.962807 -3.77678 -2.58206
rclavicle -6.36111e-015 -4.85035e-014
rhumerus 1.10921 13.5063 -68.5578
rradius 28.7706
rwrist -3.26303
rhand -9.32586 10.1484
rfingers 7.12502
rthumb 16.6327 -19.1589
lclavicle -6.36111e-015 -4.85035e-014
lhumerus -15.094 -21.1381 80.9821
lradius 38.2716
lwrist -2.90991
lhand -31.8434 -13.709
lfingers 7.12502
lthumb -5.09752 16.2097
rfemur -27.7726 -4.99841 13.6956
rtibia 36.8596
rfoot -13.2235 7.89956
rtoes -1.47646
lfemur -24.0856 0.775208 -16.3047
ltibia 33.7893
lfoot -11.2458 12.6416
ltoes -20.6936
313
root 15.0363 19.1545 0.632615 170.218 -97.029 -162.302
lowerback 28.9319 2.55139 5.58496
upperback 20.3901 2.09351 -0.993339
thorax 7.34034 0.898759 -4.55687
lowerneck -3.99416 -5.03592 10.9408
upperneck -2.95061 -7.21468 -2.22347
head -0.75893 -3.74492 -2.60945
rclavicle -5.64548e-014 3.61788e-014
rhumerus 0.128247 13.5258 -69.0001
rradius 29.1101
rwrist -3.42461
rhand -9.06507 9.92585
rfingers 7.12502
rthumb 16.8838 -19.3602
lclavicle -5.64548e-014 3.61788e-014
lhumerus -15.254 -21.0908 80.9005
lradius 38.0174
lwrist -3.11277
lhand -31.8298 -13.6033
lfingers 7.12502
lthumb -5.08436 16.3157
rfemur -26.8446 -4.97049 13.8073
rtibia 36.652
rfoot -13.3079 8.18707
rtoes -1.15542
lfemur -23.0404 0.767428 -16.1365
ltibia 33.4972
lfoot -11.423 12.7789
ltoes -20.605
314
root 14.9769 19.1563 0.618489 169.708 -96.8334 -162.353
lowerback 28.1243 2.57398 5.45571
upperback 20.254 2.11499 -1.05705
thorax 7.51286 0.9162 -4.55245
lowerneck -4.08665 -5.01936 10.8903
upperneck -2.39357 -7.201 -2.43789
head -0.569575 -3.7163 -2.68534
rclavicle 0 5.56597e-015
rhumerus -0.867065 13.5859 -69.4274
rradius 29.4962
rwrist -3.63377
rhand -8.8004 9.76501
rfingers 7.12502
rthumb 17.1386 -19.4991
lclavicle 0 5.56597e-015
lhumerus -15.4408 -20.9691 80.8268
lradius 37.7631
lwrist -3.36857
lhand -31.7416 -13.4891
lfingers 7.12502
lthumb -4.99927 16.4319
rfemur -25.943 -4.96218 13.8977
rtibia 36.4596
rfoot -13.4108 8.49516
rtoes -0.853038
lfemur -22.0157 0.731666 -15.9901
ltibia 33.2116
lfoot -11.5856 12.9659
ltoes -20.6575
315
root 14.9175 19.1582 0.604229 169.227 -96.632 -162.433
lowerback 27.2554 2.60101 5.32564
upperback 19.882 2.11638 -1.00509
thorax 8.01867 0.940597 -4.6333
lowerneck -4.26086 -4.98571 10.7542
upperneck -1.75848 -7.16853 -2.57439
head -0.333152 -3.67645 -2.72448
rclavicle -7.95139e-016 -1.35174e-014
rhumerus -1.79324 13.6527 -69.8167
rradius 29.8504
rwrist -3.85033
rhand -8.52901 9.61583
rfingers 7.12502
rthumb 17.3998 -19.6254
lclavicle -7.95139e-016 -1.35174e-014
lhumerus -15.6019 -20.8622 80.7628
lradius 37.5105
lwrist -3.60112
lhand -31.6859 -13.3692
lfingers 7.12502
lthumb -4.94542 16.5531
rfemur -25.0516 -4.95011 13.9937
rtibia 36.2737
rfoot -13.5183 8.77358
rtoes -0.88353
lfemur -20.9961 0.673067 -15.8409
ltibia 32.9307
lfoot -11.743 13.1841
ltoes -20.7536
316
root 14.8573 19.1584 0.589448 168.727 -96.4291 -162.455
lowerback 26.4793 2.62296 5.19488
upperback 19.7372 2.14302 -1.05994
thorax 8.18515 0.958349 -4.60373
lowerneck -4.57171 -4.90894 10.4829
upperneck -0.948712 -7.08588 -2.53449
head -0.00187917 -3.60577 -2.68926
rclavicle 5.64548e-014 2.38542e-015
rhumerus -2.67722 13.6939 -70.182
rradius 30.2075
rwrist -4.06153
rhand -8.29569 9.49675
rfingers 7.12502
rthumb 17.6243 -19.7245
lclavicle 5.64548e-014 2.38542e-015
lhumerus -15.7832 -20.7629 80.7184
lradius 37.3052
lwrist -3.85659
lhand -31.6178 -13.2065
lfingers 7.12502
lthumb -4.87973 16.7173
rfemur -24.2032 -4.94452 14.083
rtibia 36.1028
rfoot -13.6117 9.08214
rtoes -0.516645
lfemur -20.0155 0.66679 -15.7045
ltibia 32.6496
lfoot -11.8887 13.3483
ltoes -20.8697
317
root 14.7972 19.1591 0.574336 168.636 -96.2386 -162.897
lowerback 25.7473 2.62466 5.10005
upperback 19.5964 2.15105 -1.1035
thorax 8.34141 0.96868 -4.57931
lowerneck -4.98316 -4.81805 10.2384
upperneck -0.0958354 -6.99668 -2.54213
head 0.357468 -3.53299 -2.68114
rclavicle 1.03368e-014 1.86858e-014
rhumerus -3.49738 13.7687 -70.5185
rradius 30.5855
rwrist -4.31393
rhand -8.01369 9.32838
rfingers 7.12502
rthumb 17.8957 -19.8682
lclavicle 1.03368e-014 1.86858e-014
lhumerus -15.94 -20.6063 80.6584
lradius 37.0995
lwrist -4.1518
lhand -31.5637 -13.1286
lfingers 7.12502
lthumb -4.82748 16.7964
rfemur -23.3432 -4.94284 14.2189
rtibia 35.9325
rfoot -13.7236 9.35438
rtoes -0.365011
lfemur -19.0395 0.667061 -15.5193
ltibia 32.3772
lfoot -12.0534 13.4795
ltoes -20.8648
318
root 14.7372 19.1587 0.558226 168.361 -96.0421 -163.125
lowerback 25.0232 2.62169 4.97384
upperback 19.4469 2.15024 -1.15846
thorax 8.48448 0.971734 -4.54857
lowerneck -5.39453 -4.72881 9.95575
upperneck 0.707392 -6.90665 -2.49937
head 0.704244 -3.46234 -2.64992
rclavicle 1.74931e-014 -3.26007e-014
rhumerus -4.26326 13.8269 -70.8627
rradius 30.9237
rwrist -4.53558
rhand -7.76192 9.25928
rfingers 7.12502
rthumb 18.1379 -19.915
lclavicle 1.74931e-014 -3.26007e-014
lhumerus -16.1103 -20.4653 80.5948
lradius 36.9184
lwrist -4.38058
lhand -31.5127 -13.146
lfingers 7.12502
lthumb -4.77822 16.7801
rfemur -22.5211 -4.91055 14.3269
rtibia 35.7688
rfoot -13.8336 9.61889
rtoes -0.142742
lfemur -18.0936 0.652739 -15.356
ltibia 32.1079
lfoot -12.1955 13.6457
ltoes -21.0599
319
root 14.677 19.1574 0.541485 168.126 -95.8553 -163.392
lowerback 24.3486 2.61428 4.80251
upperback 19.2797 2.14048 -1.18686
thorax 8.57873 0.961402 -4.46262
lowerneck -5.76309 -4.63313 9.67183
upperneck 1.43225 -6.8009 -2.48771
head 1.01912 -3.38806 -2.62662
rclavicle 3.26007e-014 1.43125e-014
rhumerus -4.99424 13.9826 -71.1633
rradius 31.2755
rwrist -4.82612
rhand -7.49442 9.09589
rfingers 7.12502
rthumb 18.3952 -20.0543
lclavicle 3.26007e-014 1.43125e-014
lhumerus -16.3163 -20.2667 80.5807
lradius 36.7458
lwrist -4.61667
lhand -31.4676 -13.1694
lfingers 7.12502
lthumb -4.73463 16.7577
rfemur -21.6944 -4.91126 14.4368
rtibia 35.6046
rfoot -13.9476 9.91082
rtoes 0.0652247
lfemur -17.1522 0.663971 -15.191
ltibia 31.8427
lfoot -12.3606 13.7414
ltoes -20.9645
320
root 14.6158 19.1556 0.524716 168.062 -95.645 -163.821
lowerback 23.7098 2.60105 4.65305
upperback 19.0879 2.1323 -1.21552
thorax 8.63115 0.953662 -4.39053
lowerneck -5.98537 -4.54749 9.36513
upperneck 2.0431 -6.69026 -2.43612
head 1.27448 -3.31492 -2.57793
rclavicle -4.21423e-014 2.54444e-014
rhumerus -5.7612 14.1653 -71.4541
rradius 31.6786
rwrist -5.0851
rhand -7.22744 8.97856
rfingers 7.12502
rthumb 18.6521 -20.1472
lclavicle -4.21423e-014 2.54444e-014
lhumerus -16.5532 -20.0595 80.5794
lradius 36.5604
lwrist -4.88004
lhand -31.3881 -13.203
lfingers 7.12502
lthumb -4.65793 16.7258
rfemur -20.8873 -4.88937 14.5709
rtibia 35.4529
rfoot -14.0742 10.1726
rtoes 0.10055
lfemur -16.2184 0.690486 -15.0061
ltibia 31.5792
lfoot -12.5208 13.869
ltoes -20.9847
321
root 14.5544 19.1548 0.505843 168.253 -95.4496 -164.459
lowerback 23.0477 2.5824 4.49306
upperback 18.8835 2.11873 -1.22827
thorax 8.68061 0.941627 -4.29336
lowerneck -6.05943 -4.47396 9.08535
upperneck 2.47166 -6.58043 -2.40808
head 1.44304 -3.24872 -2.53145
rclavicle 1.63003e-014 4.73108e-014
rhumerus -6.53744 14.329 -71.7376
rradius 32.1131
rwrist -5.31871
rhand -7.00982 8.82072
rfingers 7.12502
rthumb 18.8614 -20.2848
lclavicle 1.63003e-014 4.73108e-014
lhumerus -16.8243 -19.8574 80.5919
lradius 36.429
lwrist -5.14285
lhand -31.2938 -13.1985
lfingers 7.12502
lthumb -4.56683 16.7323
rfemur -20.1296 -4.86176 14.7258
rtibia 35.3051
rfoot -14.1875 10.4221
rtoes 0.435674
lfemur -15.3501 0.758841 -14.7966
ltibia 31.3314
lfoot -12.6583 13.9379
ltoes -21.064
